<?xml version="1.0" encoding="utf-8"?>
<!-- Generator: Adobe Illustrator 18.1.1, SVG Export Plug-In . SVG Version: 6.00 Build 0)  -->
<svg version="1.1" xmlns="http://www.w3.org/2000/svg" xmlns:xlink="http://www.w3.org/1999/xlink" x="0px" y="0px"
	 viewBox="0 0 35 35" enable-background="new 0 0 35 35" xml:space="preserve">
<g id="Layer_1" display="none">
	<circle display="inline" fill="none" stroke="#000000" stroke-width="2" stroke-miterlimit="10" cx="9.1" cy="9.1" r="6.1"/>
	<circle display="inline" cx="27.7" cy="31.9" r="2.1"/>
	<path display="inline" fill="none" stroke="#000000" stroke-width="2" stroke-miterlimit="10" d="M27.7,28.6v-2.7
		c0,0,3.6,0,3.5-3.2s-3.5-3-3.5-3s-2.6,0.1-2.6,3.2"/>
	<g display="inline">
		<g>
			<path fill="none" stroke="#000000" stroke-miterlimit="10" d="M9.4,15.2c0,0,0,0.4,0,1"/>
			<path fill="none" stroke="#000000" stroke-miterlimit="10" stroke-dasharray="2.0497,2.0497" d="M9.7,18.2
				c0.6,3.6,2.7,9.3,9.7,10.6"/>
			<path fill="none" stroke="#000000" stroke-miterlimit="10" d="M20.4,29c0.3,0,0.7,0.1,1,0.1"/>
		</g>
	</g>
	<polygon display="inline" points="22.8,29.1 19.7,26.1 19.2,31.5 	"/>
</g>
<g id="Layer_2">
	<circle fill="#FFFFFF" stroke="#000000" stroke-width="2" stroke-miterlimit="10" cx="17.5" cy="17.4" r="16"/>
	<g>
		<circle fill="#FFFFFF" cx="17.5" cy="17.4" r="9"/>
		
			<circle fill="none" stroke="#000000" stroke-width="2" stroke-miterlimit="10" stroke-dasharray="3.1292,3.1292" cx="17.5" cy="17.4" r="9"/>
	</g>
</g>
</svg>
