<?xml version="1.0" encoding="utf-8"?>
<!-- Generator: Adobe Illustrator 18.1.1, SVG Export Plug-In . SVG Version: 6.00 Build 0)  -->
<svg version="1.1" id="Layer_1" xmlns="http://www.w3.org/2000/svg" xmlns:xlink="http://www.w3.org/1999/xlink" x="0px" y="0px"
	 viewBox="0 0 40 40" enable-background="new 0 0 40 40" xml:space="preserve">
<path fill="#f3b232" d="M33.1,17.2H6.8c-0.6,0-1.2-0.5-1.2-1.2v0c0-0.6,0.5-1.2,1.2-1.2h26.3c0.6,0,1.2,0.5,1.2,1.2v0
	C34.2,16.7,33.7,17.2,33.1,17.2z"/>
<path fill="#f3b232" d="M33.1,21.3H6.8c-0.6,0-1.2-0.5-1.2-1.2v0c0-0.6,0.5-1.2,1.2-1.2h26.3c0.6,0,1.2,0.5,1.2,1.2v0
	C34.2,20.8,33.7,21.3,33.1,21.3z"/>
<path fill="#f3b232" d="M33.1,25.4H6.8c-0.6,0-1.2-0.5-1.2-1.2v0c0-0.6,0.5-1.2,1.2-1.2h26.3c0.6,0,1.2,0.5,1.2,1.2v0
	C34.2,24.9,33.7,25.4,33.1,25.4z"/>
<path fill="#f3b232" d="M24.9,29.6H6.8c-0.6,0-1.2-0.5-1.2-1.2v0c0-0.6,0.5-1.2,1.2-1.2h18.2c0.6,0,1.2,0.5,1.2,1.2v0
	C26.1,29.1,25.6,29.6,24.9,29.6z"/>
<path fill="#f3b232" d="M33.1,13H6.8c-0.6,0-1.2-0.5-1.2-1.2v0c0-0.6,0.5-1.2,1.2-1.2h26.3c0.6,0,1.2,0.5,1.2,1.2v0C34.2,12.5,33.7,13,33.1,13z"/>
</svg>
