<?xml version="1.0" encoding="utf-8"?>
<!-- Generator: Adobe Illustrator 18.1.1, SVG Export Plug-In . SVG Version: 6.00 Build 0)  -->
<svg version="1.1" id="Layer_1" xmlns="http://www.w3.org/2000/svg" xmlns:xlink="http://www.w3.org/1999/xlink" x="0px" y="0px"
	 viewBox="0 0 35 35" enable-background="new 0 0 35 35" xml:space="preserve">
<path fill="#FFFFFF" stroke="#000000" stroke-width="2" stroke-miterlimit="5" d="M28.8,18.7H6.2c-2.7,0-5-2.2-5-5V6
	c0-2.8,2.2-5,5-5h22.7c2.8,0,5,2.2,5,5v7.7C33.8,16.4,31.6,18.7,28.8,18.7z"/>
<line fill="#FFFFFF" stroke="#000000" stroke-miterlimit="5" x1="4.4" y1="6.1" x2="30.4" y2="6.1"/>
<line fill="#FFFFFF" stroke="#000000" stroke-miterlimit="5" x1="4.4" y1="9.6" x2="29.3" y2="9.6"/>
<line fill="#FFFFFF" stroke="#000000" stroke-miterlimit="5" x1="4.4" y1="13.1" x2="28.1" y2="13.1"/>
<circle cx="17.2" cy="32.3" r="1.7"/>
<path fill="none" stroke="#000000" stroke-width="2" stroke-miterlimit="10" d="M17.2,29.8v-2.1c0,0,2.8,0,2.7-2.5
	c-0.1-2.6-2.7-2.3-2.7-2.3s-2,0.1-2,2.5"/>
</svg>
