<?xml version="1.0" encoding="utf-8"?>
<!-- Generator: Adobe Illustrator 18.1.1, SVG Export Plug-In . SVG Version: 6.00 Build 0)  -->
<svg version="1.1" id="Layer_1" xmlns="http://www.w3.org/2000/svg" xmlns:xlink="http://www.w3.org/1999/xlink" x="0px" y="0px"
	 viewBox="0 0 35 35" enable-background="new 0 0 35 35" xml:space="preserve">
<path fill="none" stroke="#000000" stroke-width="2" stroke-miterlimit="10" d="M30,27H5.2c-2.2,0-4-1.8-4-4V11.2c0-2.2,1.8-4,4-4
	H30c2.2,0,4,1.8,4,4V23C34,25.2,32.2,27,30,27z"/>
<circle cx="12.7" cy="22.9" r="2.1"/>
<path fill="none" stroke="#000000" stroke-width="2" stroke-miterlimit="10" d="M12.7,19.6v-2.7c0,0,3.6,0,3.5-3.2s-3.5-3-3.5-3
	s-2.6,0.1-2.6,3.2"/>
<rect x="19.4" y="14.5" transform="matrix(0.7071 -0.7071 0.7071 0.7071 -3.3627 21.2424)" fill="none" stroke="#000000" stroke-miterlimit="10" width="9" height="0.5"/>
<circle fill="none" stroke="#000000" stroke-miterlimit="10" cx="21.7" cy="12.2" r="1.3"/>
<circle fill="none" stroke="#000000" stroke-miterlimit="10" cx="26" cy="17.1" r="1.3"/>
</svg>
