<?xml version="1.0" encoding="utf-8"?>
<!-- Generator: Adobe Illustrator 18.1.1, SVG Export Plug-In . SVG Version: 6.00 Build 0)  -->
<svg version="1.1" id="Layer_1" xmlns="http://www.w3.org/2000/svg" xmlns:xlink="http://www.w3.org/1999/xlink" x="0px" y="0px"
	 viewBox="0 0 40 40" enable-background="new 0 0 40 40" xml:space="preserve">
<path fill="none" stroke="#56909b" stroke-width="1.5" stroke-miterlimit="10" d="M31.4,30.3H7.1c-1.7,0-3-1.3-3-3v-2.2
	c0-1.6,1.3-3,3-3h24.3c1.7,0,3,1.4,3,3v2.2C34.4,28.9,33,30.3,31.4,30.3z"/>
<g>
	<polygon fill="#FFFFFF" stroke="#56909b" stroke-width="2" stroke-miterlimit="10" points="22.7,6.3 28.6,12.8 14.2,26 7.7,26 
		8.2,19.5 	"/>
	<path fill="#56909b" d="M10.4,25.5c0,0,0.1-2.3-2-2.2l-0.2,2.2L10.4,25.5z"/>
	<line fill="none" stroke="#56909b" stroke-width="2" stroke-miterlimit="10" x1="12.8" y1="23.3" x2="26.6" y2="10.7"/>
	<line fill="none" stroke="#56909b" stroke-miterlimit="10" x1="10.4" y1="21.2" x2="24.5" y2="8.3"/>
</g>
</svg>
