<?xml version="1.0" encoding="utf-8"?>
<!-- Generator: Adobe Illustrator 18.1.1, SVG Export Plug-In . SVG Version: 6.00 Build 0)  -->
<svg version="1.1" id="Layer_1" xmlns="http://www.w3.org/2000/svg" xmlns:xlink="http://www.w3.org/1999/xlink" x="0px" y="0px"
	 viewBox="0 0 40 40" enable-background="new 0 0 40 40" xml:space="preserve">
<path fill="none" stroke="#56909b" stroke-width="2" stroke-miterlimit="10" d="M30.3,32.6H9.1c-1.7,0-3-1.4-3-3v-1.7
	c0-1.6,1.3-3,3-3h21.2c1.6,0,3,1.4,3,3v1.7C33.3,31.2,32,32.6,30.3,32.6z"/>
<g>
	<polygon fill="#FFFFFF" stroke="#56909b" stroke-width="2" stroke-miterlimit="10" points="26.3,7.2 33.2,14.9 16.2,30.4 8.6,30.4 
		9.3,22.8 	"/>
	<path d="M12,30.4c0,0,0.1-3.2-2.7-3l-0.3,2.9L12,30.4z"/>
	<line fill="none" stroke="#56909b" stroke-width="2" stroke-miterlimit="10" x1="14.2" y1="27.2" x2="30.3" y2="12.5"/>
	<line fill="none" stroke="#56909b" stroke-miterlimit="10" x1="12" y1="23.8" x2="27.7" y2="9.5"/>
</g>
</svg>
